<svg width="187" height="54" viewBox="0 0 187 54" fill="none" xmlns="http://www.w3.org/2000/svg">
<path d="M68.28 43.216C66.72 43.216 65.508 42.988 64.644 42.532C63.804 42.076 63.228 41.416 62.916 40.552C62.604 39.664 62.448 38.596 62.448 37.348V26.044H60.432V22.192H62.448V15.856H68.388V22.192H71.34V26.044H68.388V36.772C68.388 37.372 68.556 37.804 68.892 38.068C69.252 38.332 69.696 38.464 70.224 38.464C70.536 38.464 70.824 38.452 71.088 38.428C71.352 38.38 71.592 38.344 71.808 38.32V42.928C71.496 42.976 71.004 43.036 70.332 43.108C69.66 43.18 68.976 43.216 68.28 43.216ZM81.3666 43.36C79.8546 43.36 78.5586 43.096 77.4786 42.568C76.3986 42.016 75.5706 41.224 74.9946 40.192C74.4186 39.136 74.1306 37.876 74.1306 36.412V28.78C74.1306 27.292 74.4186 26.032 74.9946 25C75.5706 23.968 76.3986 23.188 77.4786 22.66C78.5826 22.108 79.8786 21.832 81.3666 21.832C82.9026 21.832 84.1746 22.096 85.1826 22.624C86.2146 23.152 86.9826 23.932 87.4866 24.964C88.0146 25.996 88.2786 27.268 88.2786 28.78V32.956H79.9266V36.952C79.9266 37.48 79.9866 37.912 80.1066 38.248C80.2266 38.584 80.3946 38.824 80.6106 38.968C80.8266 39.112 81.0786 39.184 81.3666 39.184C81.6546 39.184 81.9066 39.124 82.1226 39.004C82.3626 38.86 82.5426 38.644 82.6626 38.356C82.8066 38.068 82.8786 37.672 82.8786 37.168V34.972H88.2786V36.988C88.2786 39.1 87.6666 40.696 86.4426 41.776C85.2186 42.832 83.5266 43.36 81.3666 43.36ZM79.9266 30.22H82.8786V28.132C82.8786 27.58 82.8066 27.148 82.6626 26.836C82.5426 26.524 82.3626 26.308 82.1226 26.188C81.9066 26.068 81.6426 26.008 81.3306 26.008C81.0426 26.008 80.7906 26.08 80.5746 26.224C80.3826 26.368 80.2266 26.62 80.1066 26.98C79.9866 27.316 79.9266 27.808 79.9266 28.456V30.22ZM89.7163 43L94.1443 31.588L89.9323 22.192H95.8363L98.0683 27.196L100.048 22.192H104.548L100.444 32.452L105.16 43H99.1843L96.6643 37.276L94.5763 43H89.7163ZM113.526 43.216C111.966 43.216 110.754 42.988 109.89 42.532C109.05 42.076 108.474 41.416 108.162 40.552C107.85 39.664 107.694 38.596 107.694 37.348V26.044H105.678V22.192H107.694V15.856H113.634V22.192H116.586V26.044H113.634V36.772C113.634 37.372 113.802 37.804 114.138 38.068C114.498 38.332 114.942 38.464 115.47 38.464C115.782 38.464 116.07 38.452 116.334 38.428C116.598 38.38 116.838 38.344 117.054 38.32V42.928C116.742 42.976 116.25 43.036 115.578 43.108C114.906 43.18 114.222 43.216 113.526 43.216Z" fill="white"/>
<path d="M126.217 43.36C124.393 43.36 122.869 42.952 121.645 42.136C120.445 41.32 119.461 39.988 118.693 38.14L122.689 36.376C123.073 37.312 123.517 38.056 124.021 38.608C124.549 39.136 125.125 39.4 125.749 39.4C126.205 39.4 126.541 39.304 126.757 39.112C126.997 38.92 127.117 38.656 127.117 38.32C127.117 37.768 126.901 37.264 126.469 36.808C126.061 36.352 125.317 35.68 124.237 34.792L122.725 33.532C121.621 32.596 120.745 31.696 120.097 30.832C119.473 29.944 119.161 28.852 119.161 27.556C119.161 26.428 119.449 25.432 120.025 24.568C120.625 23.704 121.417 23.032 122.401 22.552C123.385 22.072 124.441 21.832 125.569 21.832C127.273 21.832 128.701 22.3 129.853 23.236C131.005 24.172 131.809 25.492 132.265 27.196L128.485 28.924C128.341 28.468 128.137 28.012 127.873 27.556C127.609 27.1 127.285 26.716 126.901 26.404C126.541 26.092 126.145 25.936 125.713 25.936C125.329 25.936 125.017 26.044 124.777 26.26C124.561 26.476 124.453 26.764 124.453 27.124C124.453 27.58 124.705 28.072 125.209 28.6C125.737 29.128 126.457 29.764 127.369 30.508L128.845 31.804C129.445 32.308 130.033 32.848 130.609 33.424C131.185 34 131.653 34.636 132.013 35.332C132.397 36.028 132.589 36.82 132.589 37.708C132.589 38.908 132.289 39.94 131.689 40.804C131.089 41.644 130.297 42.28 129.313 42.712C128.353 43.144 127.321 43.36 126.217 43.36ZM135.066 43V22.192H140.934V24.28C141.702 23.512 142.494 22.912 143.31 22.48C144.15 22.048 145.026 21.832 145.938 21.832C146.802 21.832 147.51 22.048 148.062 22.48C148.638 22.888 149.07 23.464 149.358 24.208C149.646 24.928 149.79 25.756 149.79 26.692V43H143.958V27.52C143.958 27.016 143.874 26.632 143.706 26.368C143.538 26.104 143.226 25.972 142.77 25.972C142.53 25.972 142.242 26.044 141.906 26.188C141.594 26.308 141.27 26.488 140.934 26.728V43H135.066ZM157.597 43.36C156.541 43.36 155.653 43.108 154.933 42.604C154.213 42.1 153.673 41.464 153.313 40.696C152.953 39.904 152.773 39.1 152.773 38.284C152.773 36.988 153.025 35.896 153.529 35.008C154.057 34.12 154.741 33.376 155.581 32.776C156.421 32.176 157.345 31.672 158.353 31.264C159.361 30.832 160.357 30.448 161.341 30.112V28.024C161.341 27.664 161.305 27.352 161.233 27.088C161.161 26.8 161.041 26.584 160.873 26.44C160.705 26.272 160.453 26.188 160.117 26.188C159.781 26.188 159.517 26.26 159.325 26.404C159.157 26.548 159.037 26.752 158.965 27.016C158.893 27.256 158.845 27.532 158.821 27.844L158.677 29.356L153.205 29.14C153.325 26.644 153.985 24.808 155.185 23.632C156.409 22.432 158.233 21.832 160.657 21.832C162.769 21.832 164.341 22.42 165.373 23.596C166.429 24.748 166.957 26.248 166.957 28.096V37.816C166.957 38.68 166.969 39.436 166.993 40.084C167.041 40.732 167.089 41.296 167.137 41.776C167.209 42.256 167.269 42.664 167.317 43H162.061C161.989 42.448 161.905 41.848 161.809 41.2C161.713 40.552 161.641 40.168 161.593 40.048C161.353 40.912 160.897 41.68 160.225 42.352C159.577 43.024 158.701 43.36 157.597 43.36ZM159.685 39.4C159.925 39.4 160.141 39.352 160.333 39.256C160.549 39.16 160.741 39.028 160.909 38.86C161.077 38.692 161.221 38.524 161.341 38.356V32.668C160.861 32.956 160.417 33.256 160.009 33.568C159.601 33.856 159.253 34.18 158.965 34.54C158.677 34.9 158.449 35.296 158.281 35.728C158.137 36.136 158.065 36.604 158.065 37.132C158.065 37.828 158.209 38.38 158.497 38.788C158.785 39.196 159.181 39.4 159.685 39.4ZM170.434 49.84V22.192H176.302V23.704C176.998 23.08 177.742 22.612 178.534 22.3C179.326 21.988 180.082 21.832 180.802 21.832C181.594 21.832 182.266 21.988 182.818 22.3C183.394 22.612 183.862 23.056 184.222 23.632C184.582 24.184 184.846 24.832 185.014 25.576C185.182 26.32 185.266 27.112 185.266 27.952V36.916C185.266 38.212 185.086 39.34 184.726 40.3C184.39 41.26 183.886 42.016 183.214 42.568C182.542 43.096 181.714 43.36 180.73 43.36C179.986 43.36 179.23 43.192 178.462 42.856C177.718 42.496 176.998 42.016 176.302 41.416V49.84H170.434ZM177.85 39.58C178.234 39.58 178.534 39.472 178.75 39.256C178.966 39.04 179.122 38.764 179.218 38.428C179.338 38.068 179.398 37.672 179.398 37.24V27.52C179.398 27.112 179.35 26.752 179.254 26.44C179.158 26.104 179.002 25.84 178.786 25.648C178.57 25.456 178.294 25.36 177.958 25.36C177.646 25.36 177.346 25.432 177.058 25.576C176.794 25.696 176.542 25.864 176.302 26.08V39.04C176.566 39.208 176.818 39.34 177.058 39.436C177.322 39.532 177.586 39.58 177.85 39.58Z" fill="#F49148"/>
<rect x="2.69481" y="6.5105" width="43.8153" height="43.8153" transform="rotate(0.241041 2.69481 6.5105)" stroke="#F49148" stroke-width="5"/>
<line x1="6.99999" y1="18.5" x2="25" y2="18.5" stroke="#F8E0A4" stroke-width="3"/>
<line x1="6.99999" y1="27.5" x2="42" y2="27.5" stroke="#F49148" stroke-width="3"/>
<line x1="6.99999" y1="36.5" x2="42" y2="36.5" stroke="#F49148" stroke-width="3"/>
</svg>
